<?xml version="1.0" encoding="UTF-8"?>
<svg id="Capa_1" xmlns="http://www.w3.org/2000/svg" version="1.1" viewBox="1205 640 420 620">
  <!-- Generator: Adobe Illustrator 30.6.0, SVG Export Plug-In . SVG Version: 2.1.4 Build 109)  -->
  <defs>
    <style>
      .st0 {
        stroke-width: 1.5px;
      }

      .st0, .st1 {
        fill: none;
        stroke: #000;
      }

      .st1 {
        stroke-miterlimit: 10;
        stroke-width: 1.3px;
      }
    </style>
  </defs>
  <g>
    <line class="st0" x1="54" x2="54" y2="36"/>
    <line class="st0" y1="54" x2="36" y2="54"/>
    <line class="st0" y1="1606" x2="36" y2="1606"/>
    <line class="st0" x1="54" y1="1660" x2="54" y2="1624"/>
    <line class="st0" x1="2552" x2="2552" y2="36"/>
    <line class="st0" x1="2606" y1="54" x2="2570" y2="54"/>
    <line class="st0" x1="2606" y1="1606" x2="2570" y2="1606"/>
    <line class="st0" x1="2552" y1="1660" x2="2552" y2="1624"/>
  </g>
  <g>
    <polygon class="st1" points="1258 1137.74 1258 1046.09 1416.47 1096.2 1416.22 1188.64 1258 1139.11 1258 1137.74"/>
    <polyline class="st1" points="1258.25 1046.15 1420.04 706.01 1430.1 684.85"/>
    <path class="st1" d="M1578.14,743.94"/>
    <polyline class="st1" points="1416.47 1096.2 1580.87 745.41 1580.87 841.16 1416.22 1188.64 1416.22 1197 1416.22 1197.26"/>
    <path class="st1" d="M1303.78,1055.1"/>
    <polyline class="st1" points="1307.14 1056.07 1322.53 1022.92 1333.19 1025.9 1340.01 1012.83 1340.01 948.22"/>
    <polyline class="st1" points="1333.19 1025.9 1333.19 946.07 1459.65 985.88"/>
    <path class="st1" d="M1578.14,743.94l-74.68,157.52-3.83-1.21-27.29,58.39-143.41-45.54s97.35-204.51,97.35-204.51c.87-1.92,1.75-3.83,2.62-5.75.6-1.31.7-2.22,2.29-2.2,1.69.02,3.56.5,4.61,1.93.45.61.71,1.33,1.14,1.95.87,1.25,2.37,1.94,3.87,2.14,1.79.24,3.74-.1,5.29.83,1.26.76,1.95,2.2,3.05,3.17,2.27,2,5.69,1.64,8.68,1.21,1.15-.17,2.37-.32,3.44.13.42.18.8.44,1.17.71,1.54,1.13,2.97,2.42,4.25,3.84,1.25,1.39,2.55,3.02,4.4,3.25,1.44.18,2.81-.56,4.23-.88,2.56-.58,5.41.3,7.18,2.24,2.17,2.36,4.71,5.22,7.87,4.68,1.78-.3,3.76-1.26,5.26-.24.56.38.93.97,1.36,1.48,1.25,1.48,3.11,2.35,5.01,2.73s3.86.34,5.8.27c1.94-.07,4.07-.12,5.58,1.1.84.67,1.37,1.64,2.09,2.42,1.47,1.58,3.79,2.32,5.9,1.89,1.85-.38,3.86-.29,5.74-.45.43-.04.88-.07,1.28.09.67.26,1.03.95,1.47,1.52,1.44,1.88,3.96,2.59,6.32,2.72s4.75-.21,7.1.1c.53.07,1.09.19,1.49.55.38.34.56.85.85,1.28.67,1.01,1.91,1.51,3.11,1.62s2.41-.12,3.61-.28c2-.26,4.03-.33,6.04-.2.36.02.74.05,1.07.2.88.38,1.28,1.39,1.95,2.08,1.37,1.4,3.64,1.25,5.57.89s4.07-.8,5.73.25c.81.52,1.56,1.39,2.51,1.26.46-.07.84-.37,1.2-.65.57-.46,1.15-2.05,1.72-2.51Z"/>
    <polyline class="st1" points="1322.53 1022.92 1322.53 931.56 1268.79 1044.42 1411.14 1089.25 1459.62 985.99 1464.04 976.52"/>
    <path class="st1" d="M1322.53,931.56"/>
    <line class="st1" x1="1322.53" y1="931.56" x2="1464.04" y2="976.52"/>
    <line class="st1" x1="1339.97" y1="986.32" x2="1354.73" y2="955.13"/>
    <polyline class="st1" points="1368.45 926.3 1430.1 818.28 1430.1 700.29"/>
    <path class="st1" d="M1430.63,818.3c.6-1.31.7-2.22,2.29-2.2,1.69.02,3.56.5,4.61,1.93.45.61.71,1.33,1.14,1.95.87,1.25,2.37,1.94,3.87,2.14,1.79.24,3.74-.1,5.29.83,1.26.76,1.95,2.2,3.05,3.17,2.27,2,5.69,1.64,8.68,1.21,1.15-.17,2.37-.32,3.44.13.42.18.8.44,1.17.71,1.54,1.13,2.97,2.42,4.25,3.84,1.25,1.39,2.55,3.02,4.4,3.25,1.44.18,2.81-.56,4.23-.88,2.56-.58,5.41.3,7.18,2.24,2.17,2.36,4.71,5.22,7.87,4.68,1.78-.3,3.76-1.26,5.26-.24.56.38.93.97,1.36,1.48,1.25,1.48,3.11,2.35,5.01,2.73s3.86.34,5.8.27c1.94-.07,4.07-.12,5.58,1.1.84.67,1.37,1.64,2.09,2.42,1.47,1.58,3.79,2.32,5.9,1.89,1.33-.27,2.75-.3,4.15-.36"/>
    <polyline class="st1" points="1293.66 1150.27 1293.66 1082.31 1298.31 1083.77 1404.76 1117.1 1404.76 1185.16"/>
    <line class="st1" x1="1297.96" y1="1144.26" x2="1297.96" y2="1083.77"/>
    <g>
      <line class="st1" x1="1300.29" y1="1100.99" x2="1301.43" y2="1100.09"/>
      <line class="st1" x1="1300.29" y1="1120.21" x2="1301.43" y2="1119.32"/>
      <g>
        <polygon class="st1" points="1300.29 1086.72 1300.29 1100.99 1323.57 1108.13 1323.57 1092.06 1300.29 1084.87 1300.29 1086.72"/>
        <polyline class="st1" points="1301.43 1085.22 1301.43 1085.82 1301.43 1100.09 1323.57 1106.89"/>
        <polygon class="st1" points="1300.29 1105.95 1300.29 1120.21 1323.57 1127.36 1323.57 1111.29 1300.29 1104.09 1300.29 1105.95"/>
        <polyline class="st1" points="1301.43 1104.45 1301.43 1105.05 1301.43 1119.32 1323.57 1126.11"/>
        <polygon class="st1" points="1300.29 1124.58 1300.29 1138.85 1323.57 1146 1323.57 1129.93 1300.29 1122.73 1300.29 1124.58"/>
        <polyline class="st1" points="1301.43 1123.08 1301.43 1123.69 1301.43 1137.95 1323.57 1144.75"/>
        <line class="st1" x1="1300.29" y1="1138.85" x2="1301.43" y2="1137.95"/>
      </g>
    </g>
    <g>
      <line class="st1" x1="1339.51" y1="1113.42" x2="1340.65" y2="1112.53"/>
      <line class="st1" x1="1339.51" y1="1132.65" x2="1340.65" y2="1131.75"/>
      <g>
        <polygon class="st1" points="1339.51 1099.16 1339.51 1113.42 1362.79 1120.57 1362.79 1104.5 1339.51 1097.3 1339.51 1099.16"/>
        <polyline class="st1" points="1340.65 1097.66 1340.65 1098.26 1340.65 1112.53 1362.79 1119.32"/>
        <polygon class="st1" points="1339.51 1118.39 1339.51 1132.65 1362.79 1139.8 1362.79 1123.73 1339.51 1116.53 1339.51 1118.39"/>
        <polyline class="st1" points="1340.65 1116.88 1340.65 1117.49 1340.65 1131.75 1362.79 1138.55"/>
        <polygon class="st1" points="1339.51 1137.02 1339.51 1151.29 1362.79 1158.43 1362.79 1142.36 1339.51 1135.17 1339.51 1137.02"/>
        <polyline class="st1" points="1340.65 1135.52 1340.65 1136.12 1340.65 1150.39 1362.79 1157.19"/>
        <line class="st1" x1="1339.51" y1="1151.29" x2="1340.65" y2="1150.39"/>
      </g>
    </g>
    <g>
      <line class="st1" x1="1374.4" y1="1124.34" x2="1375.54" y2="1123.44"/>
      <line class="st1" x1="1374.4" y1="1143.57" x2="1375.54" y2="1142.67"/>
      <g>
        <polygon class="st1" points="1374.4 1110.08 1374.4 1124.34 1397.68 1131.49 1397.68 1115.42 1374.4 1108.22 1374.4 1110.08"/>
        <polyline class="st1" points="1375.54 1108.57 1375.54 1109.18 1375.54 1123.44 1397.68 1130.24"/>
        <polygon class="st1" points="1374.4 1129.3 1374.4 1143.57 1397.68 1150.72 1397.68 1134.65 1374.4 1127.45 1374.4 1129.3"/>
        <polyline class="st1" points="1375.54 1127.8 1375.54 1128.41 1375.54 1142.67 1397.68 1149.47"/>
        <polygon class="st1" points="1374.4 1147.94 1374.4 1162.2 1397.68 1169.35 1397.68 1153.28 1374.4 1146.08 1374.4 1147.94"/>
        <polyline class="st1" points="1375.54 1146.44 1375.54 1147.04 1375.54 1161.31 1397.68 1168.11"/>
        <line class="st1" x1="1374.4" y1="1162.2" x2="1375.54" y2="1161.31"/>
      </g>
    </g>
    <line class="st1" x1="1332.57" y1="1155.05" x2="1332.57" y2="1094.57"/>
    <line class="st1" x1="1368.55" y1="1166.46" x2="1368.55" y2="1106.05"/>
    <path class="st1" d="M1297.96,1131.98"/>
    <line class="st1" x1="1293.66" y1="1150.38" x2="1297.99" y2="1144.18"/>
    <polyline class="st1" points="1297.99 1144.34 1302.65 1145.79 1404.75 1177.77"/>
    <line class="st1" x1="1416.22" y1="1197.21" x2="1407.89" y2="1214.49"/>
    <polyline class="st1" points="1257.97 1139.11 1253.81 1148 1253.81 1152.1 1412.03 1201.61 1412.03 1197.51 1416.19 1188.63"/>
    <polyline class="st1" points="1253.81 1152.03 1249.64 1160.92 1249.64 1165.02 1407.86 1214.53 1407.86 1210.43 1412.03 1201.54"/>
    <line class="st1" x1="1253.81" y1="1148" x2="1412.03" y2="1197.51"/>
    <line class="st1" x1="1249.64" y1="1160.92" x2="1407.86" y2="1210.43"/>
  </g>
</svg>